<?xml version="1.0" standalone="no"?>
<!DOCTYPE svg PUBLIC "-//W3C//DTD SVG 20010904//EN"
 "http://www.w3.org/TR/2001/REC-SVG-20010904/DTD/svg10.dtd">
<svg version="1.0" xmlns="http://www.w3.org/2000/svg"
 width="30.000000pt" height="30.000000pt" viewBox="0 0 30.000000 30.000000"
 preserveAspectRatio="xMidYMid meet">

<g transform="translate(0.000000,30.000000) scale(0.100000,-0.100000)"
fill="#000000" stroke="none">
<path d="M24 265 c11 -16 35 -49 54 -72 l34 -43 -34 -43 c-19 -23 -43 -55 -54
-72 l-19 -30 30 19 c17 11 49 35 73 54 l42 34 43 -34 c23 -19 56 -43 72 -54
l30 -19 -19 30 c-11 17 -35 49 -54 72 l-34 43 34 43 c19 23 43 56 54 72 l19
30 -30 -19 c-16 -11 -49 -35 -72 -54 l-43 -34 -42 34 c-24 19 -56 43 -73 54
l-30 19 19 -30z"/>
</g>
</svg>
